G04 #@! TF.GenerationSoftware,KiCad,Pcbnew,(5.1.5-0-10_14)*
G04 #@! TF.CreationDate,2020-04-12T19:04:30-04:00*
G04 #@! TF.ProjectId,plaid_bottom,706c6169-645f-4626-9f74-746f6d2e6b69,rev?*
G04 #@! TF.SameCoordinates,PX2faf080PY2faf080*
G04 #@! TF.FileFunction,Legend,Top*
G04 #@! TF.FilePolarity,Positive*
%FSLAX46Y46*%
G04 Gerber Fmt 4.6, Leading zero omitted, Abs format (unit mm)*
G04 Created by KiCad (PCBNEW (5.1.5-0-10_14)) date 2020-04-12 19:04:30*
%MOMM*%
%LPD*%
G04 APERTURE LIST*
%ADD10C,0.010000*%
%ADD11C,4.800000*%
G04 APERTURE END LIST*
D10*
G36*
X36689742Y-58446290D02*
G01*
X37094798Y-58569155D01*
X37458322Y-58791081D01*
X37758253Y-59100932D01*
X37972527Y-59487574D01*
X38079082Y-59939872D01*
X38055856Y-60446691D01*
X38011608Y-60639871D01*
X37808127Y-61081542D01*
X37488327Y-61428208D01*
X37084385Y-61666245D01*
X36628481Y-61782024D01*
X36152791Y-61761920D01*
X35721484Y-61609667D01*
X35440260Y-61413697D01*
X35174316Y-61153844D01*
X35094334Y-61052040D01*
X34953194Y-60828885D01*
X34876270Y-60623208D01*
X34844999Y-60366414D01*
X34840334Y-60113334D01*
X35475334Y-60113334D01*
X35547940Y-60486156D01*
X35742713Y-60789561D01*
X36025085Y-61002715D01*
X36360488Y-61104783D01*
X36714354Y-61074932D01*
X36921402Y-60984887D01*
X37163956Y-60762360D01*
X37345941Y-60451514D01*
X37422415Y-60130493D01*
X37422667Y-60113333D01*
X37347444Y-59751801D01*
X37146379Y-59436909D01*
X36856375Y-59207013D01*
X36514338Y-59100468D01*
X36445101Y-59097333D01*
X36112883Y-59175214D01*
X35815634Y-59381796D01*
X35592098Y-59676490D01*
X35481019Y-60018705D01*
X35475334Y-60113334D01*
X34840334Y-60113334D01*
X34850481Y-59777073D01*
X34893402Y-59540218D01*
X34987812Y-59333429D01*
X35095466Y-59168127D01*
X35446018Y-58783403D01*
X35843290Y-58542279D01*
X36265219Y-58433619D01*
X36689742Y-58446290D01*
G37*
X36689742Y-58446290D02*
X37094798Y-58569155D01*
X37458322Y-58791081D01*
X37758253Y-59100932D01*
X37972527Y-59487574D01*
X38079082Y-59939872D01*
X38055856Y-60446691D01*
X38011608Y-60639871D01*
X37808127Y-61081542D01*
X37488327Y-61428208D01*
X37084385Y-61666245D01*
X36628481Y-61782024D01*
X36152791Y-61761920D01*
X35721484Y-61609667D01*
X35440260Y-61413697D01*
X35174316Y-61153844D01*
X35094334Y-61052040D01*
X34953194Y-60828885D01*
X34876270Y-60623208D01*
X34844999Y-60366414D01*
X34840334Y-60113334D01*
X35475334Y-60113334D01*
X35547940Y-60486156D01*
X35742713Y-60789561D01*
X36025085Y-61002715D01*
X36360488Y-61104783D01*
X36714354Y-61074932D01*
X36921402Y-60984887D01*
X37163956Y-60762360D01*
X37345941Y-60451514D01*
X37422415Y-60130493D01*
X37422667Y-60113333D01*
X37347444Y-59751801D01*
X37146379Y-59436909D01*
X36856375Y-59207013D01*
X36514338Y-59100468D01*
X36445101Y-59097333D01*
X36112883Y-59175214D01*
X35815634Y-59381796D01*
X35592098Y-59676490D01*
X35481019Y-60018705D01*
X35475334Y-60113334D01*
X34840334Y-60113334D01*
X34850481Y-59777073D01*
X34893402Y-59540218D01*
X34987812Y-59333429D01*
X35095466Y-59168127D01*
X35446018Y-58783403D01*
X35843290Y-58542279D01*
X36265219Y-58433619D01*
X36689742Y-58446290D01*
G36*
X50122667Y-62399334D02*
G01*
X41825334Y-62399334D01*
X41825334Y-60452000D01*
X50122667Y-60452000D01*
X50122667Y-62399334D01*
G37*
X50122667Y-62399334D02*
X41825334Y-62399334D01*
X41825334Y-60452000D01*
X50122667Y-60452000D01*
X50122667Y-62399334D01*
G36*
X82399521Y-60583778D02*
G01*
X82579005Y-60711704D01*
X82822322Y-60936330D01*
X83155745Y-61266719D01*
X83248815Y-61359491D01*
X83905296Y-62013174D01*
X83545148Y-62333851D01*
X83270887Y-62573150D01*
X83084241Y-62702941D01*
X82945850Y-62725746D01*
X82816352Y-62644086D01*
X82656387Y-62460483D01*
X82603214Y-62394193D01*
X82350665Y-62112982D01*
X82039198Y-61812284D01*
X81814419Y-61620611D01*
X81353410Y-61256334D01*
X81794428Y-60857811D01*
X81981323Y-60689568D01*
X82126955Y-60581773D01*
X82257596Y-60543489D01*
X82399521Y-60583778D01*
G37*
X82399521Y-60583778D02*
X82579005Y-60711704D01*
X82822322Y-60936330D01*
X83155745Y-61266719D01*
X83248815Y-61359491D01*
X83905296Y-62013174D01*
X83545148Y-62333851D01*
X83270887Y-62573150D01*
X83084241Y-62702941D01*
X82945850Y-62725746D01*
X82816352Y-62644086D01*
X82656387Y-62460483D01*
X82603214Y-62394193D01*
X82350665Y-62112982D01*
X82039198Y-61812284D01*
X81814419Y-61620611D01*
X81353410Y-61256334D01*
X81794428Y-60857811D01*
X81981323Y-60689568D01*
X82126955Y-60581773D01*
X82257596Y-60543489D01*
X82399521Y-60583778D01*
G36*
X80435957Y-61749267D02*
G01*
X80707341Y-61967662D01*
X81040520Y-62275266D01*
X81390569Y-62629815D01*
X81517464Y-62766738D01*
X81881928Y-63167598D01*
X81432798Y-63543645D01*
X81203317Y-63731276D01*
X81027520Y-63866626D01*
X80942264Y-63921362D01*
X80941334Y-63921471D01*
X80868958Y-63863175D01*
X80720175Y-63708724D01*
X80529761Y-63494493D01*
X80254713Y-63201076D01*
X79940485Y-62902987D01*
X79747131Y-62738968D01*
X79333740Y-62412201D01*
X79814433Y-62030867D01*
X80076313Y-61832608D01*
X80247807Y-61732884D01*
X80363537Y-61716010D01*
X80435957Y-61749267D01*
G37*
X80435957Y-61749267D02*
X80707341Y-61967662D01*
X81040520Y-62275266D01*
X81390569Y-62629815D01*
X81517464Y-62766738D01*
X81881928Y-63167598D01*
X81432798Y-63543645D01*
X81203317Y-63731276D01*
X81027520Y-63866626D01*
X80942264Y-63921362D01*
X80941334Y-63921471D01*
X80868958Y-63863175D01*
X80720175Y-63708724D01*
X80529761Y-63494493D01*
X80254713Y-63201076D01*
X79940485Y-62902987D01*
X79747131Y-62738968D01*
X79333740Y-62412201D01*
X79814433Y-62030867D01*
X80076313Y-61832608D01*
X80247807Y-61732884D01*
X80363537Y-61716010D01*
X80435957Y-61749267D01*
G36*
X61437423Y-63748490D02*
G01*
X61565598Y-63932498D01*
X61725757Y-64219733D01*
X61904183Y-64582528D01*
X62087159Y-64993212D01*
X62260968Y-65424117D01*
X62391381Y-65786000D01*
X62634277Y-66505667D01*
X62283972Y-66645415D01*
X61990140Y-66762483D01*
X61647360Y-66898846D01*
X61497725Y-66958306D01*
X61061783Y-67131449D01*
X61007861Y-66844020D01*
X60927677Y-66551715D01*
X60784645Y-66157272D01*
X60597907Y-65706713D01*
X60386606Y-65246060D01*
X60169884Y-64821335D01*
X60155882Y-64795735D01*
X59867559Y-64271136D01*
X60561946Y-64002570D01*
X60886205Y-63877105D01*
X61154659Y-63773136D01*
X61324584Y-63707214D01*
X61354950Y-63695380D01*
X61437423Y-63748490D01*
G37*
X61437423Y-63748490D02*
X61565598Y-63932498D01*
X61725757Y-64219733D01*
X61904183Y-64582528D01*
X62087159Y-64993212D01*
X62260968Y-65424117D01*
X62391381Y-65786000D01*
X62634277Y-66505667D01*
X62283972Y-66645415D01*
X61990140Y-66762483D01*
X61647360Y-66898846D01*
X61497725Y-66958306D01*
X61061783Y-67131449D01*
X61007861Y-66844020D01*
X60927677Y-66551715D01*
X60784645Y-66157272D01*
X60597907Y-65706713D01*
X60386606Y-65246060D01*
X60169884Y-64821335D01*
X60155882Y-64795735D01*
X59867559Y-64271136D01*
X60561946Y-64002570D01*
X60886205Y-63877105D01*
X61154659Y-63773136D01*
X61324584Y-63707214D01*
X61354950Y-63695380D01*
X61437423Y-63748490D01*
G36*
X58500061Y-65091037D02*
G01*
X58691510Y-65437507D01*
X58904177Y-65860597D01*
X59114601Y-66309532D01*
X59299321Y-66733540D01*
X59434878Y-67081845D01*
X59471605Y-67193671D01*
X59473396Y-67352163D01*
X59374874Y-67416817D01*
X59228987Y-67465380D01*
X58972247Y-67556941D01*
X58652137Y-67674465D01*
X58541299Y-67715814D01*
X57858265Y-67971670D01*
X57756293Y-67590408D01*
X57657475Y-67303795D01*
X57492794Y-66914627D01*
X57282631Y-66466074D01*
X57047363Y-66001309D01*
X56807370Y-65563503D01*
X56765095Y-65490642D01*
X56551697Y-65126505D01*
X56914349Y-65000361D01*
X57214215Y-64891563D01*
X57562058Y-64759175D01*
X57719031Y-64697317D01*
X58161062Y-64520417D01*
X58500061Y-65091037D01*
G37*
X58500061Y-65091037D02*
X58691510Y-65437507D01*
X58904177Y-65860597D01*
X59114601Y-66309532D01*
X59299321Y-66733540D01*
X59434878Y-67081845D01*
X59471605Y-67193671D01*
X59473396Y-67352163D01*
X59374874Y-67416817D01*
X59228987Y-67465380D01*
X58972247Y-67556941D01*
X58652137Y-67674465D01*
X58541299Y-67715814D01*
X57858265Y-67971670D01*
X57756293Y-67590408D01*
X57657475Y-67303795D01*
X57492794Y-66914627D01*
X57282631Y-66466074D01*
X57047363Y-66001309D01*
X56807370Y-65563503D01*
X56765095Y-65490642D01*
X56551697Y-65126505D01*
X56914349Y-65000361D01*
X57214215Y-64891563D01*
X57562058Y-64759175D01*
X57719031Y-64697317D01*
X58161062Y-64520417D01*
X58500061Y-65091037D01*
G36*
X188383334Y-68156667D02*
G01*
X175937334Y-68156667D01*
X175937334Y-65955334D01*
X188383334Y-65955334D01*
X188383334Y-68156667D01*
G37*
X188383334Y-68156667D02*
X175937334Y-68156667D01*
X175937334Y-65955334D01*
X188383334Y-65955334D01*
X188383334Y-68156667D01*
G36*
X156125334Y-68156667D02*
G01*
X143679334Y-68156667D01*
X143679334Y-65955334D01*
X156125334Y-65955334D01*
X156125334Y-68156667D01*
G37*
X156125334Y-68156667D02*
X143679334Y-68156667D01*
X143679334Y-65955334D01*
X156125334Y-65955334D01*
X156125334Y-68156667D01*
G36*
X170519191Y-67162234D02*
G01*
X170807817Y-67466334D01*
X171126512Y-67826941D01*
X171458636Y-68222313D01*
X171787548Y-68630710D01*
X172096609Y-69030390D01*
X172369178Y-69399611D01*
X172588616Y-69716633D01*
X172738282Y-69959713D01*
X172801536Y-70107110D01*
X172796335Y-70137476D01*
X172720743Y-70200307D01*
X172541831Y-70346980D01*
X172287672Y-70554526D01*
X172033483Y-70761612D01*
X171304633Y-71354825D01*
X170994886Y-70825320D01*
X170226562Y-69650955D01*
X169369504Y-68597381D01*
X169176230Y-68389988D01*
X168532692Y-67716405D01*
X168911846Y-67384577D01*
X169186398Y-67147518D01*
X169467515Y-66909717D01*
X169599012Y-66800775D01*
X169907023Y-66548801D01*
X170519191Y-67162234D01*
G37*
X170519191Y-67162234D02*
X170807817Y-67466334D01*
X171126512Y-67826941D01*
X171458636Y-68222313D01*
X171787548Y-68630710D01*
X172096609Y-69030390D01*
X172369178Y-69399611D01*
X172588616Y-69716633D01*
X172738282Y-69959713D01*
X172801536Y-70107110D01*
X172796335Y-70137476D01*
X172720743Y-70200307D01*
X172541831Y-70346980D01*
X172287672Y-70554526D01*
X172033483Y-70761612D01*
X171304633Y-71354825D01*
X170994886Y-70825320D01*
X170226562Y-69650955D01*
X169369504Y-68597381D01*
X169176230Y-68389988D01*
X168532692Y-67716405D01*
X168911846Y-67384577D01*
X169186398Y-67147518D01*
X169467515Y-66909717D01*
X169599012Y-66800775D01*
X169907023Y-66548801D01*
X170519191Y-67162234D01*
G36*
X162258288Y-66761645D02*
G01*
X162438786Y-66867585D01*
X162688237Y-67026166D01*
X162972247Y-67214464D01*
X163256424Y-67409550D01*
X163506374Y-67588499D01*
X163687703Y-67728385D01*
X163724167Y-67759838D01*
X163880466Y-67930625D01*
X163889155Y-68046899D01*
X163749511Y-68138401D01*
X163714609Y-68152253D01*
X163579641Y-68253000D01*
X163384689Y-68459627D01*
X163162177Y-68736117D01*
X163049536Y-68890991D01*
X162762612Y-69280442D01*
X162427329Y-69706842D01*
X162108395Y-70088320D01*
X162057329Y-70146334D01*
X161803365Y-70422446D01*
X161514370Y-70721876D01*
X161215966Y-71019892D01*
X160933777Y-71291768D01*
X160693427Y-71512774D01*
X160520540Y-71658182D01*
X160443334Y-71703952D01*
X160357673Y-71659258D01*
X160167352Y-71543178D01*
X159908720Y-71378078D01*
X159825307Y-71323684D01*
X159508709Y-71120700D01*
X159205738Y-70933925D01*
X158976040Y-70800031D01*
X158954748Y-70788462D01*
X158659882Y-70630424D01*
X159074229Y-70326265D01*
X159433530Y-70029858D01*
X159856175Y-69629303D01*
X160309592Y-69160001D01*
X160761209Y-68657354D01*
X161178455Y-68156763D01*
X161528758Y-67693628D01*
X161624603Y-67554318D01*
X161838236Y-67235012D01*
X162015598Y-66971682D01*
X162136763Y-66793797D01*
X162181138Y-66731274D01*
X162258288Y-66761645D01*
G37*
X162258288Y-66761645D02*
X162438786Y-66867585D01*
X162688237Y-67026166D01*
X162972247Y-67214464D01*
X163256424Y-67409550D01*
X163506374Y-67588499D01*
X163687703Y-67728385D01*
X163724167Y-67759838D01*
X163880466Y-67930625D01*
X163889155Y-68046899D01*
X163749511Y-68138401D01*
X163714609Y-68152253D01*
X163579641Y-68253000D01*
X163384689Y-68459627D01*
X163162177Y-68736117D01*
X163049536Y-68890991D01*
X162762612Y-69280442D01*
X162427329Y-69706842D01*
X162108395Y-70088320D01*
X162057329Y-70146334D01*
X161803365Y-70422446D01*
X161514370Y-70721876D01*
X161215966Y-71019892D01*
X160933777Y-71291768D01*
X160693427Y-71512774D01*
X160520540Y-71658182D01*
X160443334Y-71703952D01*
X160357673Y-71659258D01*
X160167352Y-71543178D01*
X159908720Y-71378078D01*
X159825307Y-71323684D01*
X159508709Y-71120700D01*
X159205738Y-70933925D01*
X158976040Y-70800031D01*
X158954748Y-70788462D01*
X158659882Y-70630424D01*
X159074229Y-70326265D01*
X159433530Y-70029858D01*
X159856175Y-69629303D01*
X160309592Y-69160001D01*
X160761209Y-68657354D01*
X161178455Y-68156763D01*
X161528758Y-67693628D01*
X161624603Y-67554318D01*
X161838236Y-67235012D01*
X162015598Y-66971682D01*
X162136763Y-66793797D01*
X162181138Y-66731274D01*
X162258288Y-66761645D01*
G36*
X198141167Y-61073363D02*
G01*
X198344474Y-61103604D01*
X198663409Y-61145592D01*
X199045287Y-61192534D01*
X199262670Y-61217958D01*
X199740069Y-61279190D01*
X200067614Y-61339670D01*
X200264587Y-61406805D01*
X200350273Y-61488000D01*
X200343953Y-61590658D01*
X200327032Y-61626685D01*
X200189603Y-61814020D01*
X200114289Y-61887497D01*
X200082705Y-61929900D01*
X200056523Y-62009646D01*
X200035253Y-62141309D01*
X200018404Y-62339463D01*
X200005485Y-62618684D01*
X199996006Y-62993546D01*
X199989476Y-63478622D01*
X199985403Y-64088489D01*
X199983297Y-64837720D01*
X199982668Y-65740891D01*
X199982667Y-65796367D01*
X199983737Y-66580191D01*
X199986798Y-67309465D01*
X199991631Y-67967268D01*
X199998014Y-68536680D01*
X200005725Y-69000781D01*
X200014544Y-69342649D01*
X200024249Y-69545365D01*
X200032330Y-69596000D01*
X200119359Y-69550957D01*
X200311366Y-69430184D01*
X200574721Y-69255219D01*
X200726478Y-69151500D01*
X201131733Y-68844922D01*
X201609802Y-68440155D01*
X202126360Y-67970139D01*
X202647082Y-67467817D01*
X203137645Y-66966128D01*
X203563722Y-66498015D01*
X203840073Y-66163404D01*
X204074008Y-65861137D01*
X204282210Y-65592168D01*
X204433640Y-65396595D01*
X204478975Y-65338074D01*
X204539066Y-65271586D01*
X204599242Y-65255394D01*
X204678274Y-65307759D01*
X204794935Y-65446945D01*
X204967994Y-65691212D01*
X205209412Y-66048667D01*
X205803875Y-66934698D01*
X205174098Y-67693849D01*
X204465076Y-68506536D01*
X203690655Y-69319458D01*
X202876963Y-70109183D01*
X202050126Y-70852282D01*
X201236273Y-71525324D01*
X200461530Y-72104878D01*
X199752025Y-72567513D01*
X199715399Y-72589109D01*
X199347121Y-72804935D01*
X198606561Y-72238008D01*
X197866000Y-71671082D01*
X197866000Y-61025822D01*
X198141167Y-61073363D01*
G37*
X198141167Y-61073363D02*
X198344474Y-61103604D01*
X198663409Y-61145592D01*
X199045287Y-61192534D01*
X199262670Y-61217958D01*
X199740069Y-61279190D01*
X200067614Y-61339670D01*
X200264587Y-61406805D01*
X200350273Y-61488000D01*
X200343953Y-61590658D01*
X200327032Y-61626685D01*
X200189603Y-61814020D01*
X200114289Y-61887497D01*
X200082705Y-61929900D01*
X200056523Y-62009646D01*
X200035253Y-62141309D01*
X200018404Y-62339463D01*
X200005485Y-62618684D01*
X199996006Y-62993546D01*
X199989476Y-63478622D01*
X199985403Y-64088489D01*
X199983297Y-64837720D01*
X199982668Y-65740891D01*
X199982667Y-65796367D01*
X199983737Y-66580191D01*
X199986798Y-67309465D01*
X199991631Y-67967268D01*
X199998014Y-68536680D01*
X200005725Y-69000781D01*
X200014544Y-69342649D01*
X200024249Y-69545365D01*
X200032330Y-69596000D01*
X200119359Y-69550957D01*
X200311366Y-69430184D01*
X200574721Y-69255219D01*
X200726478Y-69151500D01*
X201131733Y-68844922D01*
X201609802Y-68440155D01*
X202126360Y-67970139D01*
X202647082Y-67467817D01*
X203137645Y-66966128D01*
X203563722Y-66498015D01*
X203840073Y-66163404D01*
X204074008Y-65861137D01*
X204282210Y-65592168D01*
X204433640Y-65396595D01*
X204478975Y-65338074D01*
X204539066Y-65271586D01*
X204599242Y-65255394D01*
X204678274Y-65307759D01*
X204794935Y-65446945D01*
X204967994Y-65691212D01*
X205209412Y-66048667D01*
X205803875Y-66934698D01*
X205174098Y-67693849D01*
X204465076Y-68506536D01*
X203690655Y-69319458D01*
X202876963Y-70109183D01*
X202050126Y-70852282D01*
X201236273Y-71525324D01*
X200461530Y-72104878D01*
X199752025Y-72567513D01*
X199715399Y-72589109D01*
X199347121Y-72804935D01*
X198606561Y-72238008D01*
X197866000Y-71671082D01*
X197866000Y-61025822D01*
X198141167Y-61073363D01*
G36*
X194769734Y-61320959D02*
G01*
X195202222Y-61348630D01*
X195587434Y-61377719D01*
X195886329Y-61404973D01*
X196059866Y-61427141D01*
X196070459Y-61429316D01*
X196263705Y-61527322D01*
X196315408Y-61676516D01*
X196214691Y-61835640D01*
X196183797Y-61859200D01*
X196124566Y-61907071D01*
X196079941Y-61971495D01*
X196047855Y-62074948D01*
X196026238Y-62239905D01*
X196013021Y-62488841D01*
X196006136Y-62844233D01*
X196003514Y-63328555D01*
X196003095Y-63822301D01*
X195998519Y-64421365D01*
X195985900Y-65016556D01*
X195966671Y-65568069D01*
X195942267Y-66036096D01*
X195914121Y-66380832D01*
X195909476Y-66421000D01*
X195688473Y-67600192D01*
X195325047Y-68732715D01*
X194830185Y-69788329D01*
X194473424Y-70374179D01*
X194261900Y-70654211D01*
X193960289Y-71007256D01*
X193602346Y-71398223D01*
X193221828Y-71792021D01*
X192852490Y-72153560D01*
X192528087Y-72447749D01*
X192317430Y-72615434D01*
X192066334Y-72793740D01*
X191812334Y-72602009D01*
X191633527Y-72469027D01*
X191361880Y-72269318D01*
X191041741Y-72035421D01*
X190856626Y-71900774D01*
X190154918Y-71391269D01*
X190771959Y-70985682D01*
X191314068Y-70582753D01*
X191851865Y-70099672D01*
X192342579Y-69579866D01*
X192743436Y-69066762D01*
X192893890Y-68831295D01*
X193216240Y-68171408D01*
X193489281Y-67397397D01*
X193697009Y-66561167D01*
X193806775Y-65870667D01*
X193838338Y-65475348D01*
X193857305Y-64967215D01*
X193864374Y-64384588D01*
X193860245Y-63765792D01*
X193845615Y-63149150D01*
X193821185Y-62572983D01*
X193787652Y-62075615D01*
X193745717Y-61695369D01*
X193728789Y-61595000D01*
X193663134Y-61256334D01*
X194769734Y-61320959D01*
G37*
X194769734Y-61320959D02*
X195202222Y-61348630D01*
X195587434Y-61377719D01*
X195886329Y-61404973D01*
X196059866Y-61427141D01*
X196070459Y-61429316D01*
X196263705Y-61527322D01*
X196315408Y-61676516D01*
X196214691Y-61835640D01*
X196183797Y-61859200D01*
X196124566Y-61907071D01*
X196079941Y-61971495D01*
X196047855Y-62074948D01*
X196026238Y-62239905D01*
X196013021Y-62488841D01*
X196006136Y-62844233D01*
X196003514Y-63328555D01*
X196003095Y-63822301D01*
X195998519Y-64421365D01*
X195985900Y-65016556D01*
X195966671Y-65568069D01*
X195942267Y-66036096D01*
X195914121Y-66380832D01*
X195909476Y-66421000D01*
X195688473Y-67600192D01*
X195325047Y-68732715D01*
X194830185Y-69788329D01*
X194473424Y-70374179D01*
X194261900Y-70654211D01*
X193960289Y-71007256D01*
X193602346Y-71398223D01*
X193221828Y-71792021D01*
X192852490Y-72153560D01*
X192528087Y-72447749D01*
X192317430Y-72615434D01*
X192066334Y-72793740D01*
X191812334Y-72602009D01*
X191633527Y-72469027D01*
X191361880Y-72269318D01*
X191041741Y-72035421D01*
X190856626Y-71900774D01*
X190154918Y-71391269D01*
X190771959Y-70985682D01*
X191314068Y-70582753D01*
X191851865Y-70099672D01*
X192342579Y-69579866D01*
X192743436Y-69066762D01*
X192893890Y-68831295D01*
X193216240Y-68171408D01*
X193489281Y-67397397D01*
X193697009Y-66561167D01*
X193806775Y-65870667D01*
X193838338Y-65475348D01*
X193857305Y-64967215D01*
X193864374Y-64384588D01*
X193860245Y-63765792D01*
X193845615Y-63149150D01*
X193821185Y-62572983D01*
X193787652Y-62075615D01*
X193745717Y-61695369D01*
X193728789Y-61595000D01*
X193663134Y-61256334D01*
X194769734Y-61320959D01*
G36*
X132778500Y-61073363D02*
G01*
X132981807Y-61103604D01*
X133300742Y-61145592D01*
X133682620Y-61192534D01*
X133900003Y-61217958D01*
X134377402Y-61279190D01*
X134704947Y-61339670D01*
X134901921Y-61406805D01*
X134987606Y-61488000D01*
X134981287Y-61590658D01*
X134964366Y-61626685D01*
X134826937Y-61814020D01*
X134751623Y-61887497D01*
X134720038Y-61929900D01*
X134693857Y-62009646D01*
X134672587Y-62141309D01*
X134655738Y-62339463D01*
X134642819Y-62618684D01*
X134633340Y-62993546D01*
X134626809Y-63478622D01*
X134622736Y-64088489D01*
X134620631Y-64837720D01*
X134620002Y-65740891D01*
X134620000Y-65796367D01*
X134621070Y-66580191D01*
X134624132Y-67309465D01*
X134628965Y-67967268D01*
X134635347Y-68536680D01*
X134643058Y-69000781D01*
X134651877Y-69342649D01*
X134661582Y-69545365D01*
X134669663Y-69596000D01*
X134756692Y-69550957D01*
X134948700Y-69430184D01*
X135212054Y-69255219D01*
X135363811Y-69151500D01*
X135769066Y-68844922D01*
X136247135Y-68440155D01*
X136763693Y-67970139D01*
X137284416Y-67467817D01*
X137774978Y-66966128D01*
X138201056Y-66498015D01*
X138477406Y-66163404D01*
X138711341Y-65861137D01*
X138919543Y-65592168D01*
X139070973Y-65396595D01*
X139116309Y-65338074D01*
X139176400Y-65271586D01*
X139236576Y-65255394D01*
X139315608Y-65307759D01*
X139432268Y-65446945D01*
X139605328Y-65691212D01*
X139846746Y-66048667D01*
X140441208Y-66934698D01*
X139811431Y-67693849D01*
X139102409Y-68506536D01*
X138327989Y-69319458D01*
X137514296Y-70109183D01*
X136687460Y-70852282D01*
X135873606Y-71525324D01*
X135098863Y-72104878D01*
X134389358Y-72567513D01*
X134352733Y-72589109D01*
X133984455Y-72804935D01*
X133243894Y-72238008D01*
X132503334Y-71671082D01*
X132503334Y-61025822D01*
X132778500Y-61073363D01*
G37*
X132778500Y-61073363D02*
X132981807Y-61103604D01*
X133300742Y-61145592D01*
X133682620Y-61192534D01*
X133900003Y-61217958D01*
X134377402Y-61279190D01*
X134704947Y-61339670D01*
X134901921Y-61406805D01*
X134987606Y-61488000D01*
X134981287Y-61590658D01*
X134964366Y-61626685D01*
X134826937Y-61814020D01*
X134751623Y-61887497D01*
X134720038Y-61929900D01*
X134693857Y-62009646D01*
X134672587Y-62141309D01*
X134655738Y-62339463D01*
X134642819Y-62618684D01*
X134633340Y-62993546D01*
X134626809Y-63478622D01*
X134622736Y-64088489D01*
X134620631Y-64837720D01*
X134620002Y-65740891D01*
X134620000Y-65796367D01*
X134621070Y-66580191D01*
X134624132Y-67309465D01*
X134628965Y-67967268D01*
X134635347Y-68536680D01*
X134643058Y-69000781D01*
X134651877Y-69342649D01*
X134661582Y-69545365D01*
X134669663Y-69596000D01*
X134756692Y-69550957D01*
X134948700Y-69430184D01*
X135212054Y-69255219D01*
X135363811Y-69151500D01*
X135769066Y-68844922D01*
X136247135Y-68440155D01*
X136763693Y-67970139D01*
X137284416Y-67467817D01*
X137774978Y-66966128D01*
X138201056Y-66498015D01*
X138477406Y-66163404D01*
X138711341Y-65861137D01*
X138919543Y-65592168D01*
X139070973Y-65396595D01*
X139116309Y-65338074D01*
X139176400Y-65271586D01*
X139236576Y-65255394D01*
X139315608Y-65307759D01*
X139432268Y-65446945D01*
X139605328Y-65691212D01*
X139846746Y-66048667D01*
X140441208Y-66934698D01*
X139811431Y-67693849D01*
X139102409Y-68506536D01*
X138327989Y-69319458D01*
X137514296Y-70109183D01*
X136687460Y-70852282D01*
X135873606Y-71525324D01*
X135098863Y-72104878D01*
X134389358Y-72567513D01*
X134352733Y-72589109D01*
X133984455Y-72804935D01*
X133243894Y-72238008D01*
X132503334Y-71671082D01*
X132503334Y-61025822D01*
X132778500Y-61073363D01*
G36*
X129407067Y-61320959D02*
G01*
X129839555Y-61348630D01*
X130224768Y-61377719D01*
X130523663Y-61404973D01*
X130697199Y-61427141D01*
X130707792Y-61429316D01*
X130901038Y-61527322D01*
X130952742Y-61676516D01*
X130852024Y-61835640D01*
X130821130Y-61859200D01*
X130761899Y-61907071D01*
X130717275Y-61971495D01*
X130685188Y-62074948D01*
X130663571Y-62239905D01*
X130650355Y-62488841D01*
X130643469Y-62844233D01*
X130640847Y-63328555D01*
X130640428Y-63822301D01*
X130635852Y-64421365D01*
X130623233Y-65016556D01*
X130604004Y-65568069D01*
X130579600Y-66036096D01*
X130551455Y-66380832D01*
X130546809Y-66421000D01*
X130325806Y-67600192D01*
X129962380Y-68732715D01*
X129467518Y-69788329D01*
X129110757Y-70374179D01*
X128899233Y-70654211D01*
X128597622Y-71007256D01*
X128239679Y-71398223D01*
X127859161Y-71792021D01*
X127489823Y-72153560D01*
X127165420Y-72447749D01*
X126954763Y-72615434D01*
X126703667Y-72793740D01*
X126449667Y-72602009D01*
X126270860Y-72469027D01*
X125999214Y-72269318D01*
X125679074Y-72035421D01*
X125493959Y-71900774D01*
X124792251Y-71391269D01*
X125409292Y-70985682D01*
X125951401Y-70582753D01*
X126489198Y-70099672D01*
X126979912Y-69579866D01*
X127380769Y-69066762D01*
X127531223Y-68831295D01*
X127853573Y-68171408D01*
X128126614Y-67397397D01*
X128334342Y-66561167D01*
X128444108Y-65870667D01*
X128475672Y-65475348D01*
X128494639Y-64967215D01*
X128501708Y-64384588D01*
X128497578Y-63765792D01*
X128482948Y-63149150D01*
X128458518Y-62572983D01*
X128424985Y-62075615D01*
X128383050Y-61695369D01*
X128366122Y-61595000D01*
X128300467Y-61256334D01*
X129407067Y-61320959D01*
G37*
X129407067Y-61320959D02*
X129839555Y-61348630D01*
X130224768Y-61377719D01*
X130523663Y-61404973D01*
X130697199Y-61427141D01*
X130707792Y-61429316D01*
X130901038Y-61527322D01*
X130952742Y-61676516D01*
X130852024Y-61835640D01*
X130821130Y-61859200D01*
X130761899Y-61907071D01*
X130717275Y-61971495D01*
X130685188Y-62074948D01*
X130663571Y-62239905D01*
X130650355Y-62488841D01*
X130643469Y-62844233D01*
X130640847Y-63328555D01*
X130640428Y-63822301D01*
X130635852Y-64421365D01*
X130623233Y-65016556D01*
X130604004Y-65568069D01*
X130579600Y-66036096D01*
X130551455Y-66380832D01*
X130546809Y-66421000D01*
X130325806Y-67600192D01*
X129962380Y-68732715D01*
X129467518Y-69788329D01*
X129110757Y-70374179D01*
X128899233Y-70654211D01*
X128597622Y-71007256D01*
X128239679Y-71398223D01*
X127859161Y-71792021D01*
X127489823Y-72153560D01*
X127165420Y-72447749D01*
X126954763Y-72615434D01*
X126703667Y-72793740D01*
X126449667Y-72602009D01*
X126270860Y-72469027D01*
X125999214Y-72269318D01*
X125679074Y-72035421D01*
X125493959Y-71900774D01*
X124792251Y-71391269D01*
X125409292Y-70985682D01*
X125951401Y-70582753D01*
X126489198Y-70099672D01*
X126979912Y-69579866D01*
X127380769Y-69066762D01*
X127531223Y-68831295D01*
X127853573Y-68171408D01*
X128126614Y-67397397D01*
X128334342Y-66561167D01*
X128444108Y-65870667D01*
X128475672Y-65475348D01*
X128494639Y-64967215D01*
X128501708Y-64384588D01*
X128497578Y-63765792D01*
X128482948Y-63149150D01*
X128458518Y-62572983D01*
X128424985Y-62075615D01*
X128383050Y-61695369D01*
X128366122Y-61595000D01*
X128300467Y-61256334D01*
X129407067Y-61320959D01*
G36*
X119656434Y-61567431D02*
G01*
X120318286Y-62304771D01*
X119945166Y-62648700D01*
X119777995Y-62821177D01*
X119622303Y-63029059D01*
X119460228Y-63302640D01*
X119273911Y-63672215D01*
X119045491Y-64168078D01*
X119033178Y-64195540D01*
X118788829Y-64718127D01*
X118507131Y-65284462D01*
X118220735Y-65830829D01*
X117962290Y-66293509D01*
X117930300Y-66347805D01*
X117366291Y-67297162D01*
X118097922Y-67875081D01*
X118365282Y-68098446D01*
X118725678Y-68417331D01*
X119152611Y-68807319D01*
X119619581Y-69243991D01*
X120100090Y-69702932D01*
X120427572Y-70021675D01*
X122025590Y-71590351D01*
X121231962Y-72422285D01*
X120438334Y-73254220D01*
X119804650Y-72504610D01*
X119233218Y-71851453D01*
X118615940Y-71185792D01*
X117989420Y-70545076D01*
X117390257Y-69966749D01*
X116863022Y-69495018D01*
X116166377Y-68903496D01*
X115476256Y-69632561D01*
X114416979Y-70650089D01*
X113244245Y-71580687D01*
X111940047Y-72437773D01*
X110994463Y-72971855D01*
X110186592Y-73402254D01*
X108626402Y-71835550D01*
X109918035Y-71181306D01*
X110868517Y-70670902D01*
X111700411Y-70155974D01*
X112461811Y-69602149D01*
X113200809Y-68975059D01*
X113794932Y-68410667D01*
X114541199Y-67634177D01*
X115169966Y-66890460D01*
X115715164Y-66136511D01*
X116170263Y-65400077D01*
X116329990Y-65109350D01*
X116511683Y-64758075D01*
X116699006Y-64380531D01*
X116875623Y-64010998D01*
X117025194Y-63683754D01*
X117131384Y-63433078D01*
X117177856Y-63293249D01*
X117178667Y-63284233D01*
X117097006Y-63275843D01*
X116864049Y-63268090D01*
X116497829Y-63261180D01*
X116016384Y-63255318D01*
X115437749Y-63250712D01*
X114779958Y-63247566D01*
X114061048Y-63246088D01*
X113834334Y-63246000D01*
X110490000Y-63246000D01*
X110490000Y-61214000D01*
X114405834Y-61212607D01*
X115321213Y-61212153D01*
X116082876Y-61211028D01*
X116706439Y-61208528D01*
X117207519Y-61203948D01*
X117601732Y-61196584D01*
X117904696Y-61185729D01*
X118132027Y-61170680D01*
X118299342Y-61150731D01*
X118422257Y-61125178D01*
X118516389Y-61093314D01*
X118597356Y-61054436D01*
X118658124Y-61020653D01*
X118994581Y-60830091D01*
X119656434Y-61567431D01*
G37*
X119656434Y-61567431D02*
X120318286Y-62304771D01*
X119945166Y-62648700D01*
X119777995Y-62821177D01*
X119622303Y-63029059D01*
X119460228Y-63302640D01*
X119273911Y-63672215D01*
X119045491Y-64168078D01*
X119033178Y-64195540D01*
X118788829Y-64718127D01*
X118507131Y-65284462D01*
X118220735Y-65830829D01*
X117962290Y-66293509D01*
X117930300Y-66347805D01*
X117366291Y-67297162D01*
X118097922Y-67875081D01*
X118365282Y-68098446D01*
X118725678Y-68417331D01*
X119152611Y-68807319D01*
X119619581Y-69243991D01*
X120100090Y-69702932D01*
X120427572Y-70021675D01*
X122025590Y-71590351D01*
X121231962Y-72422285D01*
X120438334Y-73254220D01*
X119804650Y-72504610D01*
X119233218Y-71851453D01*
X118615940Y-71185792D01*
X117989420Y-70545076D01*
X117390257Y-69966749D01*
X116863022Y-69495018D01*
X116166377Y-68903496D01*
X115476256Y-69632561D01*
X114416979Y-70650089D01*
X113244245Y-71580687D01*
X111940047Y-72437773D01*
X110994463Y-72971855D01*
X110186592Y-73402254D01*
X108626402Y-71835550D01*
X109918035Y-71181306D01*
X110868517Y-70670902D01*
X111700411Y-70155974D01*
X112461811Y-69602149D01*
X113200809Y-68975059D01*
X113794932Y-68410667D01*
X114541199Y-67634177D01*
X115169966Y-66890460D01*
X115715164Y-66136511D01*
X116170263Y-65400077D01*
X116329990Y-65109350D01*
X116511683Y-64758075D01*
X116699006Y-64380531D01*
X116875623Y-64010998D01*
X117025194Y-63683754D01*
X117131384Y-63433078D01*
X117177856Y-63293249D01*
X117178667Y-63284233D01*
X117097006Y-63275843D01*
X116864049Y-63268090D01*
X116497829Y-63261180D01*
X116016384Y-63255318D01*
X115437749Y-63250712D01*
X114779958Y-63247566D01*
X114061048Y-63246088D01*
X113834334Y-63246000D01*
X110490000Y-63246000D01*
X110490000Y-61214000D01*
X114405834Y-61212607D01*
X115321213Y-61212153D01*
X116082876Y-61211028D01*
X116706439Y-61208528D01*
X117207519Y-61203948D01*
X117601732Y-61196584D01*
X117904696Y-61185729D01*
X118132027Y-61170680D01*
X118299342Y-61150731D01*
X118422257Y-61125178D01*
X118516389Y-61093314D01*
X118597356Y-61054436D01*
X118658124Y-61020653D01*
X118994581Y-60830091D01*
X119656434Y-61567431D01*
G36*
X101726608Y-63013167D02*
G01*
X101480586Y-63490972D01*
X101169272Y-64096350D01*
X100804552Y-64806150D01*
X100398310Y-65597220D01*
X99962431Y-66446412D01*
X99508800Y-67330572D01*
X99049301Y-68226552D01*
X98595820Y-69111199D01*
X98446019Y-69403527D01*
X96223667Y-73740720D01*
X95356078Y-73742693D01*
X94488490Y-73744667D01*
X95546726Y-71691500D01*
X95792748Y-71213695D01*
X96104062Y-70608317D01*
X96468782Y-69898517D01*
X96875024Y-69107447D01*
X97310903Y-68258255D01*
X97764534Y-67374095D01*
X98224033Y-66478115D01*
X98677514Y-65593468D01*
X98827314Y-65301140D01*
X101049667Y-60963947D01*
X101917255Y-60961974D01*
X102784844Y-60960000D01*
X101726608Y-63013167D01*
G37*
X101726608Y-63013167D02*
X101480586Y-63490972D01*
X101169272Y-64096350D01*
X100804552Y-64806150D01*
X100398310Y-65597220D01*
X99962431Y-66446412D01*
X99508800Y-67330572D01*
X99049301Y-68226552D01*
X98595820Y-69111199D01*
X98446019Y-69403527D01*
X96223667Y-73740720D01*
X95356078Y-73742693D01*
X94488490Y-73744667D01*
X95546726Y-71691500D01*
X95792748Y-71213695D01*
X96104062Y-70608317D01*
X96468782Y-69898517D01*
X96875024Y-69107447D01*
X97310903Y-68258255D01*
X97764534Y-67374095D01*
X98224033Y-66478115D01*
X98677514Y-65593468D01*
X98827314Y-65301140D01*
X101049667Y-60963947D01*
X101917255Y-60961974D01*
X102784844Y-60960000D01*
X101726608Y-63013167D01*
G36*
X94783941Y-63013167D02*
G01*
X94537919Y-63490972D01*
X94226605Y-64096350D01*
X93861885Y-64806150D01*
X93455643Y-65597220D01*
X93019764Y-66446412D01*
X92566133Y-67330572D01*
X92106634Y-68226552D01*
X91653153Y-69111199D01*
X91503353Y-69403527D01*
X89281000Y-73740720D01*
X88413412Y-73742693D01*
X87545823Y-73744667D01*
X88604059Y-71691500D01*
X88850081Y-71213695D01*
X89161395Y-70608317D01*
X89526115Y-69898517D01*
X89932357Y-69107447D01*
X90368236Y-68258255D01*
X90821867Y-67374095D01*
X91281366Y-66478115D01*
X91734847Y-65593468D01*
X91884648Y-65301140D01*
X94107000Y-60963947D01*
X94974589Y-60961974D01*
X95842177Y-60960000D01*
X94783941Y-63013167D01*
G37*
X94783941Y-63013167D02*
X94537919Y-63490972D01*
X94226605Y-64096350D01*
X93861885Y-64806150D01*
X93455643Y-65597220D01*
X93019764Y-66446412D01*
X92566133Y-67330572D01*
X92106634Y-68226552D01*
X91653153Y-69111199D01*
X91503353Y-69403527D01*
X89281000Y-73740720D01*
X88413412Y-73742693D01*
X87545823Y-73744667D01*
X88604059Y-71691500D01*
X88850081Y-71213695D01*
X89161395Y-70608317D01*
X89526115Y-69898517D01*
X89932357Y-69107447D01*
X90368236Y-68258255D01*
X90821867Y-67374095D01*
X91281366Y-66478115D01*
X91734847Y-65593468D01*
X91884648Y-65301140D01*
X94107000Y-60963947D01*
X94974589Y-60961974D01*
X95842177Y-60960000D01*
X94783941Y-63013167D01*
G36*
X165290500Y-60285352D02*
G01*
X165487863Y-60300077D01*
X165790179Y-60335898D01*
X166150879Y-60385755D01*
X166523394Y-60442588D01*
X166861154Y-60499334D01*
X167117589Y-60548935D01*
X167237834Y-60580596D01*
X167368831Y-60695058D01*
X167352864Y-60847073D01*
X167216667Y-60979649D01*
X167148746Y-61034436D01*
X167101814Y-61118429D01*
X167072041Y-61260381D01*
X167055594Y-61489048D01*
X167048641Y-61833183D01*
X167047334Y-62250366D01*
X167047334Y-63415334D01*
X172042667Y-63415334D01*
X172042667Y-65193334D01*
X167047334Y-65193334D01*
X167046861Y-68812834D01*
X167044459Y-69815498D01*
X167037627Y-70683709D01*
X167026512Y-71411165D01*
X167011260Y-71991562D01*
X166992018Y-72418600D01*
X166968932Y-72685976D01*
X166955229Y-72760648D01*
X166821355Y-73076774D01*
X166603953Y-73325632D01*
X166285834Y-73515060D01*
X165849808Y-73652892D01*
X165278687Y-73746966D01*
X164679595Y-73798048D01*
X163777102Y-73852862D01*
X163395832Y-72842280D01*
X163014563Y-71831698D01*
X163443448Y-71893001D01*
X163966384Y-71949045D01*
X164409734Y-71959560D01*
X164746646Y-71925596D01*
X164950273Y-71848197D01*
X164966953Y-71833619D01*
X165001264Y-71782454D01*
X165029229Y-71693708D01*
X165051476Y-71551432D01*
X165068631Y-71339671D01*
X165081321Y-71042477D01*
X165090172Y-70643895D01*
X165095811Y-70127976D01*
X165098864Y-69478766D01*
X165099959Y-68680316D01*
X165100000Y-68446953D01*
X165100000Y-65193334D01*
X160020000Y-65193334D01*
X160020000Y-63415334D01*
X165100000Y-63415334D01*
X165100000Y-60282667D01*
X165290500Y-60285352D01*
G37*
X165290500Y-60285352D02*
X165487863Y-60300077D01*
X165790179Y-60335898D01*
X166150879Y-60385755D01*
X166523394Y-60442588D01*
X166861154Y-60499334D01*
X167117589Y-60548935D01*
X167237834Y-60580596D01*
X167368831Y-60695058D01*
X167352864Y-60847073D01*
X167216667Y-60979649D01*
X167148746Y-61034436D01*
X167101814Y-61118429D01*
X167072041Y-61260381D01*
X167055594Y-61489048D01*
X167048641Y-61833183D01*
X167047334Y-62250366D01*
X167047334Y-63415334D01*
X172042667Y-63415334D01*
X172042667Y-65193334D01*
X167047334Y-65193334D01*
X167046861Y-68812834D01*
X167044459Y-69815498D01*
X167037627Y-70683709D01*
X167026512Y-71411165D01*
X167011260Y-71991562D01*
X166992018Y-72418600D01*
X166968932Y-72685976D01*
X166955229Y-72760648D01*
X166821355Y-73076774D01*
X166603953Y-73325632D01*
X166285834Y-73515060D01*
X165849808Y-73652892D01*
X165278687Y-73746966D01*
X164679595Y-73798048D01*
X163777102Y-73852862D01*
X163395832Y-72842280D01*
X163014563Y-71831698D01*
X163443448Y-71893001D01*
X163966384Y-71949045D01*
X164409734Y-71959560D01*
X164746646Y-71925596D01*
X164950273Y-71848197D01*
X164966953Y-71833619D01*
X165001264Y-71782454D01*
X165029229Y-71693708D01*
X165051476Y-71551432D01*
X165068631Y-71339671D01*
X165081321Y-71042477D01*
X165090172Y-70643895D01*
X165095811Y-70127976D01*
X165098864Y-69478766D01*
X165099959Y-68680316D01*
X165100000Y-68446953D01*
X165100000Y-65193334D01*
X160020000Y-65193334D01*
X160020000Y-63415334D01*
X165100000Y-63415334D01*
X165100000Y-60282667D01*
X165290500Y-60285352D01*
G36*
X73379771Y-60131733D02*
G01*
X73627626Y-60175905D01*
X73962583Y-60238991D01*
X74345825Y-60313330D01*
X74738535Y-60391258D01*
X75101898Y-60465113D01*
X75397097Y-60527231D01*
X75585315Y-60569950D01*
X75628500Y-60582135D01*
X75755868Y-60675331D01*
X75743044Y-60815342D01*
X75587401Y-61020944D01*
X75563565Y-61046165D01*
X75350463Y-61268595D01*
X75395667Y-65736021D01*
X75766821Y-65166231D01*
X75930789Y-64915167D01*
X76059985Y-64751089D01*
X76187813Y-64671157D01*
X76347676Y-64672533D01*
X76572976Y-64752374D01*
X76897118Y-64907842D01*
X77173667Y-65046620D01*
X78034838Y-65514360D01*
X78957913Y-66081279D01*
X79896615Y-66716285D01*
X80804666Y-67388285D01*
X81518089Y-67965554D01*
X81798511Y-68203217D01*
X81110810Y-69072279D01*
X80423108Y-69941342D01*
X80228440Y-69789838D01*
X80088428Y-69676633D01*
X79852643Y-69481602D01*
X79554429Y-69232473D01*
X79238719Y-68966768D01*
X78425428Y-68325220D01*
X77552435Y-67717154D01*
X76679125Y-67182324D01*
X76144397Y-66895284D01*
X75835280Y-66742432D01*
X75585731Y-66623892D01*
X75432410Y-66556847D01*
X75403564Y-66548000D01*
X75393102Y-66629818D01*
X75383378Y-66863881D01*
X75374623Y-67233099D01*
X75367066Y-67720384D01*
X75360938Y-68308649D01*
X75356469Y-68980803D01*
X75353891Y-69719760D01*
X75353334Y-70273334D01*
X75353334Y-73998667D01*
X73236667Y-73998667D01*
X73236667Y-67056000D01*
X73236919Y-65988154D01*
X73237648Y-64970471D01*
X73238818Y-64015469D01*
X73240390Y-63135661D01*
X73242325Y-62343566D01*
X73244585Y-61651697D01*
X73247133Y-61072571D01*
X73249930Y-60618703D01*
X73252938Y-60302610D01*
X73256119Y-60136807D01*
X73257834Y-60114139D01*
X73379771Y-60131733D01*
G37*
X73379771Y-60131733D02*
X73627626Y-60175905D01*
X73962583Y-60238991D01*
X74345825Y-60313330D01*
X74738535Y-60391258D01*
X75101898Y-60465113D01*
X75397097Y-60527231D01*
X75585315Y-60569950D01*
X75628500Y-60582135D01*
X75755868Y-60675331D01*
X75743044Y-60815342D01*
X75587401Y-61020944D01*
X75563565Y-61046165D01*
X75350463Y-61268595D01*
X75395667Y-65736021D01*
X75766821Y-65166231D01*
X75930789Y-64915167D01*
X76059985Y-64751089D01*
X76187813Y-64671157D01*
X76347676Y-64672533D01*
X76572976Y-64752374D01*
X76897118Y-64907842D01*
X77173667Y-65046620D01*
X78034838Y-65514360D01*
X78957913Y-66081279D01*
X79896615Y-66716285D01*
X80804666Y-67388285D01*
X81518089Y-67965554D01*
X81798511Y-68203217D01*
X81110810Y-69072279D01*
X80423108Y-69941342D01*
X80228440Y-69789838D01*
X80088428Y-69676633D01*
X79852643Y-69481602D01*
X79554429Y-69232473D01*
X79238719Y-68966768D01*
X78425428Y-68325220D01*
X77552435Y-67717154D01*
X76679125Y-67182324D01*
X76144397Y-66895284D01*
X75835280Y-66742432D01*
X75585731Y-66623892D01*
X75432410Y-66556847D01*
X75403564Y-66548000D01*
X75393102Y-66629818D01*
X75383378Y-66863881D01*
X75374623Y-67233099D01*
X75367066Y-67720384D01*
X75360938Y-68308649D01*
X75356469Y-68980803D01*
X75353891Y-69719760D01*
X75353334Y-70273334D01*
X75353334Y-73998667D01*
X73236667Y-73998667D01*
X73236667Y-67056000D01*
X73236919Y-65988154D01*
X73237648Y-64970471D01*
X73238818Y-64015469D01*
X73240390Y-63135661D01*
X73242325Y-62343566D01*
X73244585Y-61651697D01*
X73247133Y-61072571D01*
X73249930Y-60618703D01*
X73252938Y-60302610D01*
X73256119Y-60136807D01*
X73257834Y-60114139D01*
X73379771Y-60131733D01*
G36*
X34249634Y-61343802D02*
G01*
X34362184Y-61408536D01*
X34529191Y-61540653D01*
X34772448Y-61753710D01*
X35113751Y-62061265D01*
X35245208Y-62180026D01*
X35988748Y-62851352D01*
X35741520Y-63112176D01*
X35620646Y-63246545D01*
X35515015Y-63386628D01*
X35411451Y-63558473D01*
X35296776Y-63788133D01*
X35157812Y-64101657D01*
X34981381Y-64525094D01*
X34795845Y-64981667D01*
X34117059Y-66521342D01*
X33381480Y-67912053D01*
X32577159Y-69168126D01*
X31692148Y-70303884D01*
X30714498Y-71333651D01*
X29632260Y-72271752D01*
X28433487Y-73132511D01*
X27533297Y-73688156D01*
X27272381Y-73838001D01*
X27077186Y-73946400D01*
X26985358Y-73992512D01*
X26982964Y-73992841D01*
X26914974Y-73940439D01*
X26739300Y-73800306D01*
X26479679Y-73591496D01*
X26159846Y-73333064D01*
X26020587Y-73220243D01*
X25074841Y-72453470D01*
X25845344Y-72078459D01*
X27154136Y-71348344D01*
X28371424Y-70480037D01*
X29488998Y-69482774D01*
X30498649Y-68365792D01*
X31392168Y-67138331D01*
X32161343Y-65809627D01*
X32797966Y-64388918D01*
X32886060Y-64156167D01*
X33097078Y-63584667D01*
X23791334Y-63584667D01*
X23791334Y-61552667D01*
X28810161Y-61552667D01*
X29869417Y-61552274D01*
X30772237Y-61550876D01*
X31531519Y-61548138D01*
X32160159Y-61543728D01*
X32671054Y-61537315D01*
X33077101Y-61528565D01*
X33391196Y-61517146D01*
X33626237Y-61502725D01*
X33795120Y-61484970D01*
X33910742Y-61463548D01*
X33986000Y-61438127D01*
X34020798Y-61418318D01*
X34100735Y-61362251D01*
X34169749Y-61332893D01*
X34249634Y-61343802D01*
G37*
X34249634Y-61343802D02*
X34362184Y-61408536D01*
X34529191Y-61540653D01*
X34772448Y-61753710D01*
X35113751Y-62061265D01*
X35245208Y-62180026D01*
X35988748Y-62851352D01*
X35741520Y-63112176D01*
X35620646Y-63246545D01*
X35515015Y-63386628D01*
X35411451Y-63558473D01*
X35296776Y-63788133D01*
X35157812Y-64101657D01*
X34981381Y-64525094D01*
X34795845Y-64981667D01*
X34117059Y-66521342D01*
X33381480Y-67912053D01*
X32577159Y-69168126D01*
X31692148Y-70303884D01*
X30714498Y-71333651D01*
X29632260Y-72271752D01*
X28433487Y-73132511D01*
X27533297Y-73688156D01*
X27272381Y-73838001D01*
X27077186Y-73946400D01*
X26985358Y-73992512D01*
X26982964Y-73992841D01*
X26914974Y-73940439D01*
X26739300Y-73800306D01*
X26479679Y-73591496D01*
X26159846Y-73333064D01*
X26020587Y-73220243D01*
X25074841Y-72453470D01*
X25845344Y-72078459D01*
X27154136Y-71348344D01*
X28371424Y-70480037D01*
X29488998Y-69482774D01*
X30498649Y-68365792D01*
X31392168Y-67138331D01*
X32161343Y-65809627D01*
X32797966Y-64388918D01*
X32886060Y-64156167D01*
X33097078Y-63584667D01*
X23791334Y-63584667D01*
X23791334Y-61552667D01*
X28810161Y-61552667D01*
X29869417Y-61552274D01*
X30772237Y-61550876D01*
X31531519Y-61548138D01*
X32160159Y-61543728D01*
X32671054Y-61537315D01*
X33077101Y-61528565D01*
X33391196Y-61517146D01*
X33626237Y-61502725D01*
X33795120Y-61484970D01*
X33910742Y-61463548D01*
X33986000Y-61438127D01*
X34020798Y-61418318D01*
X34100735Y-61362251D01*
X34169749Y-61332893D01*
X34249634Y-61343802D01*
G36*
X66061167Y-64067032D02*
G01*
X66445517Y-64191320D01*
X66774833Y-64305884D01*
X67012557Y-64397477D01*
X67119500Y-64450514D01*
X67219590Y-64607394D01*
X67166210Y-64751052D01*
X67056779Y-64812086D01*
X66942593Y-64901711D01*
X66833130Y-65110116D01*
X66715749Y-65461582D01*
X66712156Y-65473958D01*
X66342069Y-66658053D01*
X65955400Y-67700027D01*
X65539914Y-68627038D01*
X65083378Y-69466241D01*
X64573557Y-70244794D01*
X64545028Y-70284590D01*
X64042624Y-70911162D01*
X63423599Y-71569044D01*
X62726654Y-72222100D01*
X61990491Y-72834198D01*
X61253811Y-73369202D01*
X61209979Y-73398367D01*
X60841250Y-73639781D01*
X60523213Y-73843180D01*
X60282077Y-73992173D01*
X60144050Y-74070373D01*
X60122870Y-74078147D01*
X60042769Y-74022574D01*
X59865621Y-73875983D01*
X59619129Y-73661862D01*
X59381657Y-73449626D01*
X58692313Y-72826292D01*
X58929359Y-72728104D01*
X59213320Y-72588018D01*
X59593626Y-72368893D01*
X60032511Y-72095071D01*
X60492210Y-71790894D01*
X60934954Y-71480704D01*
X61322979Y-71188843D01*
X61346940Y-71169867D01*
X62278069Y-70322662D01*
X63084537Y-69361490D01*
X63764693Y-68288755D01*
X64316887Y-67106862D01*
X64521035Y-66546469D01*
X64655605Y-66112024D01*
X64788218Y-65626615D01*
X64909272Y-65132031D01*
X65009165Y-64670061D01*
X65078297Y-64282493D01*
X65107064Y-64011117D01*
X65107340Y-63994719D01*
X65108667Y-63769770D01*
X66061167Y-64067032D01*
G37*
X66061167Y-64067032D02*
X66445517Y-64191320D01*
X66774833Y-64305884D01*
X67012557Y-64397477D01*
X67119500Y-64450514D01*
X67219590Y-64607394D01*
X67166210Y-64751052D01*
X67056779Y-64812086D01*
X66942593Y-64901711D01*
X66833130Y-65110116D01*
X66715749Y-65461582D01*
X66712156Y-65473958D01*
X66342069Y-66658053D01*
X65955400Y-67700027D01*
X65539914Y-68627038D01*
X65083378Y-69466241D01*
X64573557Y-70244794D01*
X64545028Y-70284590D01*
X64042624Y-70911162D01*
X63423599Y-71569044D01*
X62726654Y-72222100D01*
X61990491Y-72834198D01*
X61253811Y-73369202D01*
X61209979Y-73398367D01*
X60841250Y-73639781D01*
X60523213Y-73843180D01*
X60282077Y-73992173D01*
X60144050Y-74070373D01*
X60122870Y-74078147D01*
X60042769Y-74022574D01*
X59865621Y-73875983D01*
X59619129Y-73661862D01*
X59381657Y-73449626D01*
X58692313Y-72826292D01*
X58929359Y-72728104D01*
X59213320Y-72588018D01*
X59593626Y-72368893D01*
X60032511Y-72095071D01*
X60492210Y-71790894D01*
X60934954Y-71480704D01*
X61322979Y-71188843D01*
X61346940Y-71169867D01*
X62278069Y-70322662D01*
X63084537Y-69361490D01*
X63764693Y-68288755D01*
X64316887Y-67106862D01*
X64521035Y-66546469D01*
X64655605Y-66112024D01*
X64788218Y-65626615D01*
X64909272Y-65132031D01*
X65009165Y-64670061D01*
X65078297Y-64282493D01*
X65107064Y-64011117D01*
X65107340Y-63994719D01*
X65108667Y-63769770D01*
X66061167Y-64067032D01*
G36*
X51517625Y-64752779D02*
G01*
X52218692Y-65487745D01*
X51861485Y-65885046D01*
X51614107Y-66218606D01*
X51347171Y-66682656D01*
X51100077Y-67198340D01*
X50449307Y-68545214D01*
X49747202Y-69741610D01*
X48980018Y-70802161D01*
X48134005Y-71741498D01*
X47195416Y-72574253D01*
X46150505Y-73315057D01*
X44985523Y-73978542D01*
X44509387Y-74213012D01*
X44174726Y-74369520D01*
X43899408Y-74494479D01*
X43717567Y-74572622D01*
X43663391Y-74591334D01*
X43586994Y-74536994D01*
X43411974Y-74388447D01*
X43163145Y-74167404D01*
X42865324Y-73895574D01*
X42817055Y-73850923D01*
X42018069Y-73110512D01*
X42662535Y-72853839D01*
X43437567Y-72510873D01*
X44218446Y-72103398D01*
X44942260Y-71666070D01*
X45404509Y-71343338D01*
X45937452Y-70903017D01*
X46502918Y-70368599D01*
X47056010Y-69787085D01*
X47551834Y-69205479D01*
X47918235Y-68711592D01*
X48162478Y-68322974D01*
X48419317Y-67869870D01*
X48664639Y-67399283D01*
X48874334Y-66958215D01*
X49024288Y-66593667D01*
X49060736Y-66484500D01*
X49118078Y-66294000D01*
X40047334Y-66294000D01*
X40047334Y-64346667D01*
X45109431Y-64346667D01*
X46163776Y-64346469D01*
X47062254Y-64345600D01*
X47818331Y-64343649D01*
X48445474Y-64340206D01*
X48957150Y-64334858D01*
X49366825Y-64327195D01*
X49687965Y-64316805D01*
X49934036Y-64303278D01*
X50118505Y-64286201D01*
X50254839Y-64265164D01*
X50356503Y-64239756D01*
X50436964Y-64209565D01*
X50494043Y-64182240D01*
X50816557Y-64017813D01*
X51517625Y-64752779D01*
G37*
X51517625Y-64752779D02*
X52218692Y-65487745D01*
X51861485Y-65885046D01*
X51614107Y-66218606D01*
X51347171Y-66682656D01*
X51100077Y-67198340D01*
X50449307Y-68545214D01*
X49747202Y-69741610D01*
X48980018Y-70802161D01*
X48134005Y-71741498D01*
X47195416Y-72574253D01*
X46150505Y-73315057D01*
X44985523Y-73978542D01*
X44509387Y-74213012D01*
X44174726Y-74369520D01*
X43899408Y-74494479D01*
X43717567Y-74572622D01*
X43663391Y-74591334D01*
X43586994Y-74536994D01*
X43411974Y-74388447D01*
X43163145Y-74167404D01*
X42865324Y-73895574D01*
X42817055Y-73850923D01*
X42018069Y-73110512D01*
X42662535Y-72853839D01*
X43437567Y-72510873D01*
X44218446Y-72103398D01*
X44942260Y-71666070D01*
X45404509Y-71343338D01*
X45937452Y-70903017D01*
X46502918Y-70368599D01*
X47056010Y-69787085D01*
X47551834Y-69205479D01*
X47918235Y-68711592D01*
X48162478Y-68322974D01*
X48419317Y-67869870D01*
X48664639Y-67399283D01*
X48874334Y-66958215D01*
X49024288Y-66593667D01*
X49060736Y-66484500D01*
X49118078Y-66294000D01*
X40047334Y-66294000D01*
X40047334Y-64346667D01*
X45109431Y-64346667D01*
X46163776Y-64346469D01*
X47062254Y-64345600D01*
X47818331Y-64343649D01*
X48445474Y-64340206D01*
X48957150Y-64334858D01*
X49366825Y-64327195D01*
X49687965Y-64316805D01*
X49934036Y-64303278D01*
X50118505Y-64286201D01*
X50254839Y-64265164D01*
X50356503Y-64239756D01*
X50436964Y-64209565D01*
X50494043Y-64182240D01*
X50816557Y-64017813D01*
X51517625Y-64752779D01*
%LPC*%
D11*
X4000000Y-4000000D03*
X4000000Y-18000000D03*
X224000000Y-4000000D03*
X224000000Y-18000000D03*
X19000000Y-60000000D03*
X57000000Y-41000000D03*
X57000000Y-79000000D03*
X171000000Y-41000000D03*
X171000000Y-79000000D03*
X209000000Y-60000000D03*
M02*
