G04 #@! TF.GenerationSoftware,KiCad,Pcbnew,(5.1.5-0-10_14)*
G04 #@! TF.CreationDate,2020-04-12T19:04:30-04:00*
G04 #@! TF.ProjectId,plaid_bottom,706c6169-645f-4626-9f74-746f6d2e6b69,rev?*
G04 #@! TF.SameCoordinates,PX2faf080PY2faf080*
G04 #@! TF.FileFunction,Soldermask,Bot*
G04 #@! TF.FilePolarity,Negative*
%FSLAX46Y46*%
G04 Gerber Fmt 4.6, Leading zero omitted, Abs format (unit mm)*
G04 Created by KiCad (PCBNEW (5.1.5-0-10_14)) date 2020-04-12 19:04:30*
%MOMM*%
%LPD*%
G04 APERTURE LIST*
%ADD10C,0.100000*%
G04 APERTURE END LIST*
D10*
G36*
X171700054Y-76692230D02*
G01*
X172136826Y-76873147D01*
X172529911Y-77135798D01*
X172864202Y-77470089D01*
X173126853Y-77863174D01*
X173307770Y-78299946D01*
X173400000Y-78763621D01*
X173400000Y-79236379D01*
X173307770Y-79700054D01*
X173126853Y-80136826D01*
X172864202Y-80529911D01*
X172529911Y-80864202D01*
X172136826Y-81126853D01*
X171700054Y-81307770D01*
X171236379Y-81400000D01*
X170763621Y-81400000D01*
X170299946Y-81307770D01*
X169863174Y-81126853D01*
X169470089Y-80864202D01*
X169135798Y-80529911D01*
X168873147Y-80136826D01*
X168692230Y-79700054D01*
X168600000Y-79236379D01*
X168600000Y-78763621D01*
X168692230Y-78299946D01*
X168873147Y-77863174D01*
X169135798Y-77470089D01*
X169470089Y-77135798D01*
X169863174Y-76873147D01*
X170299946Y-76692230D01*
X170763621Y-76600000D01*
X171236379Y-76600000D01*
X171700054Y-76692230D01*
G37*
G36*
X57700054Y-76692230D02*
G01*
X58136826Y-76873147D01*
X58529911Y-77135798D01*
X58864202Y-77470089D01*
X59126853Y-77863174D01*
X59307770Y-78299946D01*
X59400000Y-78763621D01*
X59400000Y-79236379D01*
X59307770Y-79700054D01*
X59126853Y-80136826D01*
X58864202Y-80529911D01*
X58529911Y-80864202D01*
X58136826Y-81126853D01*
X57700054Y-81307770D01*
X57236379Y-81400000D01*
X56763621Y-81400000D01*
X56299946Y-81307770D01*
X55863174Y-81126853D01*
X55470089Y-80864202D01*
X55135798Y-80529911D01*
X54873147Y-80136826D01*
X54692230Y-79700054D01*
X54600000Y-79236379D01*
X54600000Y-78763621D01*
X54692230Y-78299946D01*
X54873147Y-77863174D01*
X55135798Y-77470089D01*
X55470089Y-77135798D01*
X55863174Y-76873147D01*
X56299946Y-76692230D01*
X56763621Y-76600000D01*
X57236379Y-76600000D01*
X57700054Y-76692230D01*
G37*
G36*
X209700054Y-57692230D02*
G01*
X210136826Y-57873147D01*
X210529911Y-58135798D01*
X210864202Y-58470089D01*
X211126853Y-58863174D01*
X211307770Y-59299946D01*
X211400000Y-59763621D01*
X211400000Y-60236379D01*
X211307770Y-60700054D01*
X211126853Y-61136826D01*
X210864202Y-61529911D01*
X210529911Y-61864202D01*
X210136826Y-62126853D01*
X209700054Y-62307770D01*
X209236379Y-62400000D01*
X208763621Y-62400000D01*
X208299946Y-62307770D01*
X207863174Y-62126853D01*
X207470089Y-61864202D01*
X207135798Y-61529911D01*
X206873147Y-61136826D01*
X206692230Y-60700054D01*
X206600000Y-60236379D01*
X206600000Y-59763621D01*
X206692230Y-59299946D01*
X206873147Y-58863174D01*
X207135798Y-58470089D01*
X207470089Y-58135798D01*
X207863174Y-57873147D01*
X208299946Y-57692230D01*
X208763621Y-57600000D01*
X209236379Y-57600000D01*
X209700054Y-57692230D01*
G37*
G36*
X19700054Y-57692230D02*
G01*
X20136826Y-57873147D01*
X20529911Y-58135798D01*
X20864202Y-58470089D01*
X21126853Y-58863174D01*
X21307770Y-59299946D01*
X21400000Y-59763621D01*
X21400000Y-60236379D01*
X21307770Y-60700054D01*
X21126853Y-61136826D01*
X20864202Y-61529911D01*
X20529911Y-61864202D01*
X20136826Y-62126853D01*
X19700054Y-62307770D01*
X19236379Y-62400000D01*
X18763621Y-62400000D01*
X18299946Y-62307770D01*
X17863174Y-62126853D01*
X17470089Y-61864202D01*
X17135798Y-61529911D01*
X16873147Y-61136826D01*
X16692230Y-60700054D01*
X16600000Y-60236379D01*
X16600000Y-59763621D01*
X16692230Y-59299946D01*
X16873147Y-58863174D01*
X17135798Y-58470089D01*
X17470089Y-58135798D01*
X17863174Y-57873147D01*
X18299946Y-57692230D01*
X18763621Y-57600000D01*
X19236379Y-57600000D01*
X19700054Y-57692230D01*
G37*
G36*
X171700054Y-38692230D02*
G01*
X172136826Y-38873147D01*
X172529911Y-39135798D01*
X172864202Y-39470089D01*
X173126853Y-39863174D01*
X173307770Y-40299946D01*
X173400000Y-40763621D01*
X173400000Y-41236379D01*
X173307770Y-41700054D01*
X173126853Y-42136826D01*
X172864202Y-42529911D01*
X172529911Y-42864202D01*
X172136826Y-43126853D01*
X171700054Y-43307770D01*
X171236379Y-43400000D01*
X170763621Y-43400000D01*
X170299946Y-43307770D01*
X169863174Y-43126853D01*
X169470089Y-42864202D01*
X169135798Y-42529911D01*
X168873147Y-42136826D01*
X168692230Y-41700054D01*
X168600000Y-41236379D01*
X168600000Y-40763621D01*
X168692230Y-40299946D01*
X168873147Y-39863174D01*
X169135798Y-39470089D01*
X169470089Y-39135798D01*
X169863174Y-38873147D01*
X170299946Y-38692230D01*
X170763621Y-38600000D01*
X171236379Y-38600000D01*
X171700054Y-38692230D01*
G37*
G36*
X57700054Y-38692230D02*
G01*
X58136826Y-38873147D01*
X58529911Y-39135798D01*
X58864202Y-39470089D01*
X59126853Y-39863174D01*
X59307770Y-40299946D01*
X59400000Y-40763621D01*
X59400000Y-41236379D01*
X59307770Y-41700054D01*
X59126853Y-42136826D01*
X58864202Y-42529911D01*
X58529911Y-42864202D01*
X58136826Y-43126853D01*
X57700054Y-43307770D01*
X57236379Y-43400000D01*
X56763621Y-43400000D01*
X56299946Y-43307770D01*
X55863174Y-43126853D01*
X55470089Y-42864202D01*
X55135798Y-42529911D01*
X54873147Y-42136826D01*
X54692230Y-41700054D01*
X54600000Y-41236379D01*
X54600000Y-40763621D01*
X54692230Y-40299946D01*
X54873147Y-39863174D01*
X55135798Y-39470089D01*
X55470089Y-39135798D01*
X55863174Y-38873147D01*
X56299946Y-38692230D01*
X56763621Y-38600000D01*
X57236379Y-38600000D01*
X57700054Y-38692230D01*
G37*
G36*
X224700054Y-15692230D02*
G01*
X225136826Y-15873147D01*
X225529911Y-16135798D01*
X225864202Y-16470089D01*
X226126853Y-16863174D01*
X226307770Y-17299946D01*
X226400000Y-17763621D01*
X226400000Y-18236379D01*
X226307770Y-18700054D01*
X226126853Y-19136826D01*
X225864202Y-19529911D01*
X225529911Y-19864202D01*
X225136826Y-20126853D01*
X224700054Y-20307770D01*
X224236379Y-20400000D01*
X223763621Y-20400000D01*
X223299946Y-20307770D01*
X222863174Y-20126853D01*
X222470089Y-19864202D01*
X222135798Y-19529911D01*
X221873147Y-19136826D01*
X221692230Y-18700054D01*
X221600000Y-18236379D01*
X221600000Y-17763621D01*
X221692230Y-17299946D01*
X221873147Y-16863174D01*
X222135798Y-16470089D01*
X222470089Y-16135798D01*
X222863174Y-15873147D01*
X223299946Y-15692230D01*
X223763621Y-15600000D01*
X224236379Y-15600000D01*
X224700054Y-15692230D01*
G37*
G36*
X4700054Y-15692230D02*
G01*
X5136826Y-15873147D01*
X5529911Y-16135798D01*
X5864202Y-16470089D01*
X6126853Y-16863174D01*
X6307770Y-17299946D01*
X6400000Y-17763621D01*
X6400000Y-18236379D01*
X6307770Y-18700054D01*
X6126853Y-19136826D01*
X5864202Y-19529911D01*
X5529911Y-19864202D01*
X5136826Y-20126853D01*
X4700054Y-20307770D01*
X4236379Y-20400000D01*
X3763621Y-20400000D01*
X3299946Y-20307770D01*
X2863174Y-20126853D01*
X2470089Y-19864202D01*
X2135798Y-19529911D01*
X1873147Y-19136826D01*
X1692230Y-18700054D01*
X1600000Y-18236379D01*
X1600000Y-17763621D01*
X1692230Y-17299946D01*
X1873147Y-16863174D01*
X2135798Y-16470089D01*
X2470089Y-16135798D01*
X2863174Y-15873147D01*
X3299946Y-15692230D01*
X3763621Y-15600000D01*
X4236379Y-15600000D01*
X4700054Y-15692230D01*
G37*
G36*
X224700054Y-1692230D02*
G01*
X225136826Y-1873147D01*
X225529911Y-2135798D01*
X225864202Y-2470089D01*
X226126853Y-2863174D01*
X226307770Y-3299946D01*
X226400000Y-3763621D01*
X226400000Y-4236379D01*
X226307770Y-4700054D01*
X226126853Y-5136826D01*
X225864202Y-5529911D01*
X225529911Y-5864202D01*
X225136826Y-6126853D01*
X224700054Y-6307770D01*
X224236379Y-6400000D01*
X223763621Y-6400000D01*
X223299946Y-6307770D01*
X222863174Y-6126853D01*
X222470089Y-5864202D01*
X222135798Y-5529911D01*
X221873147Y-5136826D01*
X221692230Y-4700054D01*
X221600000Y-4236379D01*
X221600000Y-3763621D01*
X221692230Y-3299946D01*
X221873147Y-2863174D01*
X222135798Y-2470089D01*
X222470089Y-2135798D01*
X222863174Y-1873147D01*
X223299946Y-1692230D01*
X223763621Y-1600000D01*
X224236379Y-1600000D01*
X224700054Y-1692230D01*
G37*
G36*
X4700054Y-1692230D02*
G01*
X5136826Y-1873147D01*
X5529911Y-2135798D01*
X5864202Y-2470089D01*
X6126853Y-2863174D01*
X6307770Y-3299946D01*
X6400000Y-3763621D01*
X6400000Y-4236379D01*
X6307770Y-4700054D01*
X6126853Y-5136826D01*
X5864202Y-5529911D01*
X5529911Y-5864202D01*
X5136826Y-6126853D01*
X4700054Y-6307770D01*
X4236379Y-6400000D01*
X3763621Y-6400000D01*
X3299946Y-6307770D01*
X2863174Y-6126853D01*
X2470089Y-5864202D01*
X2135798Y-5529911D01*
X1873147Y-5136826D01*
X1692230Y-4700054D01*
X1600000Y-4236379D01*
X1600000Y-3763621D01*
X1692230Y-3299946D01*
X1873147Y-2863174D01*
X2135798Y-2470089D01*
X2470089Y-2135798D01*
X2863174Y-1873147D01*
X3299946Y-1692230D01*
X3763621Y-1600000D01*
X4236379Y-1600000D01*
X4700054Y-1692230D01*
G37*
M02*
