M48
; DRILL file {KiCad (5.1.5-0-10_14)} date Sunday, April 12, 2020 at 07:07:58 PM
; FORMAT={-:-/ absolute / inch / decimal}
; #@! TF.CreationDate,2020-04-12T19:07:58-04:00
; #@! TF.GenerationSoftware,Kicad,Pcbnew,(5.1.5-0-10_14)
FMAT,2
INCH
T1C0.0236
T2C0.0276
T3C0.0315
T4C0.0354
T5C0.0394
T6C0.0433
T7C0.0591
T8C0.0866
T9C0.0669
T10C0.1201
T11C0.1575
%
G90
G05
T1
X0.0787Y-0.3937
X0.0787Y-0.8661
X0.0787Y-1.6142
X0.0787Y-2.3622
X0.0787Y-3.1102
X0.0787Y-3.7795
X0.55Y-0.31
X0.748Y-3.7795
X1.04Y-1.525
X1.15Y-0.745
X1.4961Y-3.7795
X1.615Y-0.9
X1.71Y-1.53
X1.95Y-0.72
X2.205Y-0.87
X2.2441Y-3.7795
X2.255Y-1.455
X2.35Y-1.0
X2.54Y-1.035
X2.75Y-0.835
X2.865Y-1.66
X2.9921Y-3.7795
X3.035Y-1.45
X3.135Y-0.875
X3.245Y-1.635
X3.555Y-1.13
X3.56Y-1.455
X3.56Y-1.575
X3.7402Y-3.7795
X3.75Y-2.495
X3.89Y-1.015
X4.09Y-3.305
X4.29Y-1.54
X4.305Y-1.125
X4.305Y-1.645
X4.311Y-1.8701
X4.4882Y-2.0866
X4.4882Y-3.7795
X4.75Y-0.825
X4.75Y-1.77
X4.91Y-0.87
X4.98Y-0.35
X5.06Y-1.635
X5.06Y-1.71
X5.09Y-0.705
X5.215Y-1.775
X5.2362Y-3.7795
X5.24Y-0.94
X5.25Y-1.32
X5.4Y-0.44
X5.435Y-1.32
X5.445Y-1.74
X5.64Y-0.885
X5.65Y-1.63
X5.81Y-1.535
X5.8169Y-1.1024
X5.9843Y-3.7795
X6.095Y-1.35
X6.135Y-0.065
X6.135Y-0.2
X6.225Y-0.065
X6.325Y-0.615
X6.375Y-0.065
X6.525Y-0.065
X6.68Y-0.065
X6.7126Y-1.3189
X6.715Y-2.11
X6.7323Y-1.1024
X6.7323Y-3.7795
X6.745Y-1.955
X6.785Y-0.545
X6.825Y-0.065
X6.895Y-1.62
X7.005Y-0.525
X7.225Y-0.3
X7.275Y-0.525
X7.31Y-1.78
X7.375Y-0.81
X7.3819Y-0.9055
X7.47Y-1.375
X7.475Y-0.81
X7.4803Y-3.7795
X7.525Y-0.51
X7.6339Y-0.8622
X7.685Y-0.65
X7.825Y-0.145
X8.07Y-0.09
X8.2283Y-3.7795
X8.31Y-1.87
X8.8976Y-0.3937
X8.8976Y-0.8661
X8.8976Y-1.6142
X8.8976Y-2.3622
X8.8976Y-3.1102
X8.8976Y-3.7795
X7.725Y-0.5
X7.725Y-0.5591
T2
X4.5Y-0.45
X4.5Y-0.65
X1.9Y-0.35
X1.9Y-0.55
X7.125Y-0.3
X7.325Y-0.3
X2.0Y-0.4
X2.0Y-0.6
X0.9Y-0.45
X0.9Y-0.65
X4.3Y-0.35
X4.3Y-0.55
X7.9Y-0.4992
X7.9Y-0.7
X7.125Y-0.2
X7.325Y-0.2
X3.8Y-0.5
X3.8Y-0.7
X4.7Y-0.35
X4.7Y-0.55
X3.1Y-0.35
X3.1Y-0.55
X5.73Y-0.4528
X5.93Y-0.4528
X2.1Y-0.45
X2.1Y-0.65
X8.425Y-0.7
X8.625Y-0.7
X1.0Y-0.5
X1.0Y-0.7
X5.0Y-0.5
X5.0Y-0.7
X4.8Y-0.4
X4.8Y-0.6
X4.9Y-0.45
X4.9Y-0.65
X3.3Y-0.45
X3.3Y-0.65
X2.2Y-0.5
X2.2Y-0.7
X8.425Y-0.8
X8.625Y-0.8
X4.0Y-0.4
X4.0Y-0.6
X1.3Y-0.45
X1.3Y-0.65
X1.1Y-0.35
X1.1Y-0.55
X1.2Y-0.4
X1.2Y-0.6
X3.5Y-0.35
X3.5Y-0.55
X3.6Y-0.4
X3.6Y-0.6
X7.425Y-0.1
X7.425Y-0.3
X2.5Y-0.45
X2.5Y-0.65
X7.762Y-0.374
X7.7935Y-0.3268
X7.825Y-0.374
X7.8565Y-0.3268
X7.888Y-0.374
X2.6Y-0.5
X2.6Y-0.7
X1.4Y-0.5
X1.4Y-0.7
X2.3Y-0.35
X2.3Y-0.55
X2.4Y-0.4
X2.4Y-0.6
X0.4Y-0.4
X0.4Y-0.6
X3.7Y-0.45
X3.7Y-0.65
X4.2Y-0.5
X4.2Y-0.7
X2.8Y-0.4
X2.8Y-0.6
X4.1Y-0.45
X4.1Y-0.65
X8.425Y-0.5
X8.625Y-0.5
X1.6Y-0.4
X1.6Y-0.6
X0.5Y-0.45
X0.5Y-0.65
X8.425Y-0.6
X8.625Y-0.6
X3.4Y-0.5
X3.4Y-0.7
X0.3Y-0.35
X0.3Y-0.55
X1.7Y-0.45
X1.7Y-0.65
X0.6Y-0.5
X0.6Y-0.7
X4.6Y-0.5
X4.6Y-0.7
X1.5Y-0.35
X1.5Y-0.55
X3.9Y-0.35
X3.9Y-0.55
X4.4Y-0.4
X4.4Y-0.6
X2.9Y-0.45
X2.9Y-0.65
X3.0Y-0.5
X3.0Y-0.7
X1.8Y-0.5
X1.8Y-0.7
X2.7Y-0.35
X2.7Y-0.55
X7.525Y-0.1
X7.525Y-0.3
X0.7Y-0.35
X0.7Y-0.55
X0.8Y-0.4
X0.8Y-0.6
X3.2Y-0.4
X3.2Y-0.6
X7.125Y-0.1
X7.325Y-0.1
T3
X5.73Y-0.88
X6.925Y-0.585
X5.73Y-0.65
X5.73Y-0.75
X5.83Y-0.65
X5.83Y-0.75
X5.93Y-0.65
X5.93Y-0.75
X6.225Y-0.4
X6.225Y-0.7
X6.325Y-0.4
X6.325Y-0.7
X6.425Y-0.4
X6.425Y-0.7
X6.525Y-0.4
X6.525Y-0.7
X6.625Y-0.4
X6.625Y-0.7
X6.725Y-0.4
X6.725Y-0.7
X6.825Y-0.4
X6.825Y-0.7
X6.925Y-0.4
X6.925Y-0.7
X7.025Y-0.4
X7.025Y-0.7
X7.125Y-0.4
X7.125Y-0.7
X7.225Y-0.4
X7.225Y-0.7
X7.325Y-0.4
X7.325Y-0.7
X7.425Y-0.4
X7.425Y-0.7
X7.525Y-0.4
X7.525Y-0.7
X6.925Y-0.1031
X6.925Y-0.3
X6.725Y-0.8
X6.9219Y-0.8
X6.225Y-0.2
X6.225Y-0.2984
X6.825Y-0.2
X6.825Y-0.2984
X6.4289Y-0.225
X6.6211Y-0.225
T4
X8.475Y-0.325
X8.575Y-0.325
X8.225Y-0.325
X8.325Y-0.325
T5
X8.25Y-0.1
X8.35Y-0.1
X8.45Y-0.1
X8.55Y-0.1
T6
X5.6941Y-0.15
X5.6941Y-0.3272
X5.95Y-0.15
X5.95Y-0.3272
X5.1941Y-0.15
X5.1941Y-0.3272
X5.45Y-0.15
X5.45Y-0.3272
T7
X4.7122Y-1.8882
X4.9622Y-1.7882
X3.9642Y-1.8882
X4.2142Y-1.7882
X7.7043Y-2.6362
X7.9543Y-2.5362
X4.7122Y-1.1402
X4.9622Y-1.0402
X0.972Y-1.8882
X1.222Y-1.7882
X3.2161Y-1.8882
X3.4661Y-1.7882
X6.9563Y-2.6362
X7.2063Y-2.5362
X6.2083Y-1.1402
X6.4583Y-1.0402
X0.972Y-1.1402
X1.222Y-1.0402
X0.224Y-1.8882
X0.474Y-1.7882
X3.9642Y-1.1402
X4.2142Y-1.0402
X2.4681Y-1.8882
X2.7181Y-1.7882
X1.7201Y-1.1402
X1.9701Y-1.0402
X6.2083Y-2.6362
X6.4583Y-2.5362
X8.4524Y-1.1402
X8.7024Y-1.0402
X3.2161Y-1.1402
X3.4661Y-1.0402
X1.7201Y-1.8882
X1.9701Y-1.7882
X5.4602Y-2.6362
X5.7102Y-2.5362
X6.9563Y-1.1402
X7.2063Y-1.0402
X2.4681Y-1.1402
X2.7181Y-1.0402
X7.7043Y-1.1402
X7.9543Y-1.0402
X0.224Y-1.1402
X0.474Y-1.0402
X0.224Y-2.6362
X0.474Y-2.5362
X2.4681Y-2.6362
X2.7181Y-2.5362
X4.7122Y-2.6362
X4.9622Y-2.5362
X8.4524Y-1.8882
X8.7024Y-1.7882
X3.9642Y-3.3843
X4.2142Y-3.2843
X2.4681Y-3.3843
X2.7181Y-3.2843
X7.7043Y-3.3843
X7.9543Y-3.2843
X3.9642Y-2.6362
X4.2142Y-2.5362
X5.4602Y-3.3843
X5.7102Y-3.2843
X3.2161Y-2.6362
X3.4661Y-2.5362
X3.2161Y-3.3843
X3.4661Y-3.2843
X6.2083Y-3.3843
X6.4583Y-3.2843
X7.7043Y-1.8882
X7.9543Y-1.7882
X1.7201Y-3.3843
X1.9701Y-3.2843
X6.9563Y-3.3843
X7.2063Y-3.2843
X6.9563Y-1.8882
X7.2063Y-1.7882
X0.972Y-3.3843
X1.222Y-3.2843
X1.7201Y-2.6362
X1.9701Y-2.5362
X6.2083Y-1.8882
X6.4583Y-1.7882
X4.3382Y-3.3843
X4.5882Y-3.2843
X0.224Y-3.3843
X0.474Y-3.2843
X5.4602Y-1.1402
X5.7102Y-1.0402
X4.7622Y-3.6843
X5.0122Y-3.5843
X5.4602Y-1.8882
X5.7102Y-1.7882
X0.972Y-2.6362
X1.222Y-2.5362
X8.4524Y-2.6362
X8.7024Y-2.5362
X8.4524Y-3.3843
X8.7024Y-3.2843
T8
X2.2441Y-3.1102
X0.748Y-2.3622
X6.7323Y-1.6142
X2.2441Y-1.6142
X0.1575Y-0.1575
X6.7323Y-3.1102
X8.8189Y-0.7087
X0.1575Y-0.7087
X8.2283Y-2.3622
X8.8189Y-0.1575
T9
X7.6543Y-1.2402
X8.0543Y-1.2402
X0.174Y-1.2402
X0.574Y-1.2402
X0.174Y-2.7362
X0.574Y-2.7362
X2.4181Y-2.7362
X2.8181Y-2.7362
X4.6622Y-2.7362
X5.0622Y-2.7362
X8.4024Y-1.9882
X8.8024Y-1.9882
X3.9142Y-3.4843
X2.4181Y-3.4843
X2.8181Y-3.4843
X7.6543Y-3.4843
X8.0543Y-3.4843
X3.9142Y-2.7362
X4.3142Y-2.7362
X5.4102Y-3.4843
X5.8102Y-3.4843
X3.1661Y-2.7362
X3.5661Y-2.7362
X3.1661Y-3.4843
X3.5661Y-3.4843
X6.1583Y-3.4843
X6.5583Y-3.4843
X7.6543Y-1.9882
X8.0543Y-1.9882
X1.6701Y-3.4843
X2.0701Y-3.4843
X6.9063Y-3.4843
X7.3063Y-3.4843
X6.9063Y-1.9882
X7.3063Y-1.9882
X0.922Y-3.4843
X1.322Y-3.4843
X1.6701Y-2.7362
X2.0701Y-2.7362
X6.1583Y-1.9882
X6.5583Y-1.9882
X0.174Y-3.4843
X0.574Y-3.4843
X5.4102Y-1.2402
X5.8102Y-1.2402
X5.0622Y-3.4843
X5.4102Y-1.9882
X5.8102Y-1.9882
X0.922Y-2.7362
X1.322Y-2.7362
X8.4024Y-2.7362
X8.8024Y-2.7362
X8.4024Y-3.4843
X8.8024Y-3.4843
X4.6622Y-1.9882
X5.0622Y-1.9882
X3.9142Y-1.9882
X4.3142Y-1.9882
X7.6543Y-2.7362
X8.0543Y-2.7362
X4.6622Y-1.2402
X5.0622Y-1.2402
X0.922Y-1.9882
X1.322Y-1.9882
X3.1661Y-1.9882
X3.5661Y-1.9882
X6.9063Y-2.7362
X7.3063Y-2.7362
X6.1583Y-1.2402
X6.5583Y-1.2402
X0.922Y-1.2402
X1.322Y-1.2402
X0.174Y-1.9882
X0.574Y-1.9882
X3.9142Y-1.2402
X4.3142Y-1.2402
X2.4181Y-1.9882
X2.8181Y-1.9882
X1.6701Y-1.2402
X2.0701Y-1.2402
X6.1583Y-2.7362
X6.5583Y-2.7362
X8.4024Y-1.2402
X8.8024Y-1.2402
X3.1661Y-1.2402
X3.5661Y-1.2402
X1.6701Y-1.9882
X2.0701Y-1.9882
X5.4102Y-2.7362
X5.8102Y-2.7362
X6.9063Y-1.2402
X7.3063Y-1.2402
X2.4181Y-1.2402
X2.8181Y-1.2402
T10
X4.0197Y-3.7598
X4.9567Y-3.7598
T11
X4.8622Y-1.9882
X4.1142Y-1.9882
X7.8543Y-2.7362
X4.8622Y-1.2402
X1.122Y-1.9882
X3.3661Y-1.9882
X7.1063Y-2.7362
X6.3583Y-1.2402
X1.122Y-1.2402
X0.374Y-1.9882
X4.1142Y-1.2402
X2.6181Y-1.9882
X1.8701Y-1.2402
X6.3583Y-2.7362
X8.6024Y-1.2402
X3.3661Y-1.2402
X1.8701Y-1.9882
X5.6102Y-2.7362
X7.1063Y-1.2402
X2.6181Y-1.2402
X7.8543Y-1.2402
X0.374Y-1.2402
X0.374Y-2.7362
X2.6181Y-2.7362
X4.8622Y-2.7362
X8.6024Y-1.9882
X4.1142Y-3.4843
X2.6181Y-3.4843
X7.8543Y-3.4843
X4.1142Y-2.7362
X5.6102Y-3.4843
X3.3661Y-2.7362
X3.3661Y-3.4843
X6.3583Y-3.4843
X7.8543Y-1.9882
X1.8701Y-3.4843
X7.1063Y-3.4843
X7.1063Y-1.9882
X1.122Y-3.4843
X1.8701Y-2.7362
X6.3583Y-1.9882
X4.4882Y-3.4843
X0.374Y-3.4843
X4.0197Y-3.1598
X4.9567Y-3.1598
X5.6102Y-1.2402
X4.8622Y-3.4843
X5.6102Y-1.9882
X1.122Y-2.7362
X8.6024Y-2.7362
X8.6024Y-3.4843
T3
G00X7.6793Y-0.1732
M15
G01X7.6793Y-0.1299
M16
G05
G00X7.6793Y-0.3602
M15
G01X7.6793Y-0.3169
M16
G05
G00X7.9707Y-0.1732
M15
G01X7.9707Y-0.1299
M16
G05
G00X7.9707Y-0.3602
M15
G01X7.9707Y-0.3169
M16
G05
T9
G00X4.2882Y-3.4843
M15
G01X4.3142Y-3.4843
M16
G05
G00X4.6622Y-3.4843
M15
G01X4.6882Y-3.4843
M16
G05
T0
M30
